<svg xmlns="http://www.w3.org/2000/svg" viewBox="0 0 600 800" width="600" height="800" role="img">
  <defs>
    <linearGradient id="sky" x1="0" y1="0" x2="0" y2="1">
      <stop offset="0" stop-color="#f3c069"/>
      <stop offset="0.55" stop-color="#cf962b"/>
      <stop offset="1" stop-color="#b0512a"/>
    </linearGradient>
    <radialGradient id="vig" cx="0.5" cy="0.45" r="0.85">
      <stop offset="0.55" stop-color="#000000" stop-opacity="0"/>
      <stop offset="1" stop-color="#3d1c0c" stop-opacity="0.3"/>
    </radialGradient>
  </defs>
  <rect width="600" height="800" fill="url(#sky)"/>
  <circle cx="300" cy="250" r="70" fill="#ffe6ad" opacity="0.55"/>
  <path fill="#7a3a1f" fill-opacity="0.8" d="M0 540 C 140 540 190 496 310 504 C 430 512 500 540 600 530 L600 800 L0 800 Z"/>
  <path fill="#11281e" d="M0 640 L600 640 L600 800 L0 800 Z"/>
  <g fill="#11281e">
    <g transform="translate(165 600) rotate(-8)"><circle r="19"/><path d="M-20 20 L-44 -6 M20 20 L44 -6" stroke="#11281e" stroke-width="13" stroke-linecap="round"/><path d="M-20 22 Q0 0 20 22 L18 62 L-18 62 Z"/></g>
    <g transform="translate(300 588)"><circle r="20"/><path d="M-21 22 L-46 -10 M21 22 L46 -10" stroke="#11281e" stroke-width="14" stroke-linecap="round"/><path d="M-22 24 Q0 0 22 24 L20 66 L-20 66 Z"/></g>
    <g transform="translate(440 600) rotate(8)"><circle r="19"/><path d="M-20 20 L-44 -6 M20 20 L44 -6" stroke="#11281e" stroke-width="13" stroke-linecap="round"/><path d="M-20 22 Q0 0 20 22 L18 62 L-18 62 Z"/></g>
  </g>
  <rect width="600" height="800" fill="url(#vig)"/>
</svg>
