<svg xmlns="http://www.w3.org/2000/svg" viewBox="0 0 600 800" width="600" height="800" role="img">
  <defs>
    <linearGradient id="sky" x1="0" y1="0" x2="0" y2="1">
      <stop offset="0" stop-color="#e7c779"/>
      <stop offset="0.5" stop-color="#d18a4a"/>
      <stop offset="1" stop-color="#b0512a"/>
    </linearGradient>
    <radialGradient id="vig" cx="0.5" cy="0.45" r="0.85">
      <stop offset="0.55" stop-color="#000000" stop-opacity="0"/>
      <stop offset="1" stop-color="#3d1c0c" stop-opacity="0.3"/>
    </radialGradient>
  </defs>
  <rect width="600" height="800" fill="url(#sky)"/>
  <circle cx="300" cy="220" r="60" fill="#ffe6ad" opacity="0.5"/>
  <path fill="#7a3a1f" fill-opacity="0.75" d="M0 520 C 130 520 170 470 290 470 C 410 470 450 530 600 520 L600 800 L0 800 Z"/>
  <path fill="#11281e" d="M0 630 L600 630 L600 800 L0 800 Z"/>
  <g fill="#11281e">
    <g transform="translate(160 590)"><circle r="18"/><path d="M-20 20 Q0 -2 20 20 L20 40 L-20 40 Z"/></g>
    <g transform="translate(240 584)"><circle r="18"/><path d="M-20 20 Q0 -2 20 20 L20 46 L-20 46 Z"/></g>
    <g transform="translate(360 584)"><circle r="18"/><path d="M-20 20 Q0 -2 20 20 L20 46 L-20 46 Z"/></g>
    <g transform="translate(440 590)"><circle r="18"/><path d="M-20 20 Q0 -2 20 20 L20 40 L-20 40 Z"/></g>
  </g>
  <rect x="120" y="636" width="360" height="22" rx="6" fill="#cf962b"/>
  <rect x="120" y="652" width="360" height="40" fill="#8a3f22"/>
  <rect width="600" height="800" fill="url(#vig)"/>
</svg>
